<svg xmlns="http://www.w3.org/2000/svg" viewBox="0 0 720 520" role="img" aria-labelledby="title desc">
<title id="title">Dead bug</title>
<desc id="desc">Stylized GregFit exercise illustration.</desc>
<defs>
  <linearGradient id="bg" x1="0" y1="0" x2="1" y2="1">
    <stop offset="0%" stop-color="#eef8f5"/>
    <stop offset="100%" stop-color="#dfeeea"/>
  </linearGradient>
  <linearGradient id="shirt" x1="0" y1="0" x2="1" y2="1">
    <stop offset="0%" stop-color="#177f73"/>
    <stop offset="100%" stop-color="#0e5c55"/>
  </linearGradient>
  <filter id="shadow" x="-20%" y="-20%" width="140%" height="140%">
    <feDropShadow dx="0" dy="10" stdDeviation="12" flood-opacity=".14"/>
  </filter>
</defs>
<rect width="720" height="520" rx="36" fill="url(#bg)"/>
<ellipse cx="360" cy="466" rx="175" ry="22" fill="#17324d" opacity=".10"/>

<g filter="url(#shadow)">
  <circle cx="202" cy="292" r="40" fill="#f4b58b" stroke="#14263b" stroke-width="8"/>
  <path d="M182 274 Q205 244 235 272" fill="#14263b"/>
  <path d="M244 292 L430 292" stroke="#14263b" stroke-width="42" stroke-linecap="round"/>
  <path d="M286 292 L222 184" stroke="#14263b" stroke-width="26" stroke-linecap="round"/>
  <path d="M300 292 L390 190" stroke="#14263b" stroke-width="26" stroke-linecap="round"/>
  <path d="M418 292 L500 196" stroke="#14263b" stroke-width="30" stroke-linecap="round"/>
  <path d="M418 292 L505 365" stroke="#14263b" stroke-width="30" stroke-linecap="round"/>
  <path d="M250 260 L430 260" stroke="url(#shirt)" stroke-width="74" stroke-linecap="round"/>
  <path d="M520 150 L565 105" stroke="#ff8c5a" stroke-width="12"/>
  <path d="M548 107 L568 102 L564 123" fill="none" stroke="#ff8c5a" stroke-width="10"/>
</g>
</svg>