<svg xmlns="http://www.w3.org/2000/svg" viewBox="0 0 720 520" role="img" aria-labelledby="title desc">
<title id="title">Suitcase carry</title>
<desc id="desc">Stylized GregFit exercise illustration.</desc>
<defs>
  <linearGradient id="bg" x1="0" y1="0" x2="1" y2="1">
    <stop offset="0%" stop-color="#eef8f5"/>
    <stop offset="100%" stop-color="#dfeeea"/>
  </linearGradient>
  <linearGradient id="shirt" x1="0" y1="0" x2="1" y2="1">
    <stop offset="0%" stop-color="#177f73"/>
    <stop offset="100%" stop-color="#0e5c55"/>
  </linearGradient>
  <filter id="shadow" x="-20%" y="-20%" width="140%" height="140%">
    <feDropShadow dx="0" dy="10" stdDeviation="12" flood-opacity=".14"/>
  </filter>
</defs>
<rect width="720" height="520" rx="36" fill="url(#bg)"/>
<ellipse cx="360" cy="466" rx="175" ry="22" fill="#17324d" opacity=".10"/>

<g filter="url(#shadow)">
  <circle cx="350" cy="104" r="42" fill="#f4b58b" stroke="#14263b" stroke-width="8"/>
  <path d="M320 82 Q350 46 384 82 Q372 64 338 66Z" fill="#14263b"/>
  <path d="M306 150 Q350 130 394 151 L408 300 Q350 330 292 300 Z" fill="url(#shirt)" stroke="#14263b" stroke-width="8"/>
  
      <path d="M312 178 L245 286" stroke="#14263b" stroke-width="24" stroke-linecap="round"/>
      <path d="M390 178 L452 286" stroke="#14263b" stroke-width="24" stroke-linecap="round"/>
      <path d="M315 304 L278 430" stroke="#14263b" stroke-width="30" stroke-linecap="round"/>
      <path d="M384 304 L425 430" stroke="#14263b" stroke-width="30" stroke-linecap="round"/>
      <path d="M267 434 L225 451" stroke="#14263b" stroke-width="24" stroke-linecap="round"/>
      <path d="M416 434 L458 451" stroke="#14263b" stroke-width="24" stroke-linecap="round"/>
    
  
<g transform="translate(238 325) scale(0.75)" filter="url(#shadow)">
  <path d="M-28 -10 C-20 -42,20 -42,28 -10" fill="none" stroke="#14263b" stroke-width="14" stroke-linecap="round"/>
  <path d="M-44 -2 Q0 -24 44 -2 L55 56 Q0 88 -55 56 Z" fill="#ffb547" stroke="#14263b" stroke-width="8"/>
</g><path d="M520 135 L520 330" stroke="#ff8c5a" stroke-width="12"/><text x="470" y="110" font-family="system-ui" font-size="28" fill="#14263b" font-weight="700">Stay tall</text>
</g>
</svg>