<svg xmlns="http://www.w3.org/2000/svg" viewBox="0 0 900 560" role="img" aria-labelledby="t d">
<title id="t">Dead Bug</title><desc id="d">Professional GregFit exercise illustration.</desc>
<defs>
  <linearGradient id="bg" x1="0" y1="0" x2="1" y2="1">
    <stop offset="0" stop-color="#0b2a31"/><stop offset="1" stop-color="#071820"/>
  </linearGradient>
  <linearGradient id="shirt" x1="0" y1="0" x2="1" y2="1">
    <stop offset="0" stop-color="#24c98a"/><stop offset="1" stop-color="#11765d"/>
  </linearGradient>
  <linearGradient id="skin" x1="0" y1="0" x2="1" y2="1">
    <stop offset="0" stop-color="#f2b386"/><stop offset="1" stop-color="#c97b55"/>
  </linearGradient>
  <linearGradient id="bell" x1="0" y1="0" x2="1" y2="1">
    <stop offset="0" stop-color="#3d4d57"/><stop offset="1" stop-color="#141d24"/>
  </linearGradient>
  <filter id="shadow"><feDropShadow dx="0" dy="10" stdDeviation="10" flood-color="#000" flood-opacity=".35"/></filter>
</defs>
<rect width="900" height="560" rx="32" fill="url(#bg)"/>
<ellipse cx="450" cy="505" rx="250" ry="22" fill="#000" opacity=".25"/>

<g filter="url(#shadow)">

<g transform="translate(245 340) scale(0.9)">
  <ellipse cx="0" cy="0" rx="31" ry="38" fill="url(#skin)" stroke="#08151d" stroke-width="5"/>
  <path d="M-28 -18 Q0 -50 30 -18 Q18 -38 -10 -41 Q-26 -34 -28 -18Z" fill="#111b22"/>
  <path d="M18 6 q10 2 12 10" stroke="#7e4b35" stroke-width="3" fill="none"/>
</g>
<path d="M290 340 L565 340" stroke="url(#shirt)" stroke-width="88" stroke-linecap="round"/>
<path d="M360 318 L295 190" stroke="url(#skin)" stroke-width="27" stroke-linecap="round"/>
<path d="M390 318 L490 195" stroke="url(#skin)" stroke-width="27" stroke-linecap="round"/>
<path d="M540 340 L655 245" stroke="#17242e" stroke-width="34" stroke-linecap="round"/>
<path d="M540 340 L655 420" stroke="#17242e" stroke-width="34" stroke-linecap="round"/>
</g>
<path d="M700 220 L760 160" stroke="#ff8a58" stroke-width="12"/>
<path d="M740 162 L765 155 L758 181" fill="none" stroke="#ff8a58" stroke-width="10"/>

</svg>