<svg xmlns="http://www.w3.org/2000/svg" viewBox="0 0 720 520" role="img" aria-labelledby="title desc">
<title id="title">March in place</title>
<desc id="desc">Stylized GregFit exercise illustration.</desc>
<defs>
  <linearGradient id="bg" x1="0" y1="0" x2="1" y2="1">
    <stop offset="0%" stop-color="#eef8f5"/>
    <stop offset="100%" stop-color="#dfeeea"/>
  </linearGradient>
  <linearGradient id="shirt" x1="0" y1="0" x2="1" y2="1">
    <stop offset="0%" stop-color="#177f73"/>
    <stop offset="100%" stop-color="#0e5c55"/>
  </linearGradient>
  <filter id="shadow" x="-20%" y="-20%" width="140%" height="140%">
    <feDropShadow dx="0" dy="10" stdDeviation="12" flood-opacity=".14"/>
  </filter>
</defs>
<rect width="720" height="520" rx="36" fill="url(#bg)"/>
<ellipse cx="360" cy="466" rx="175" ry="22" fill="#17324d" opacity=".10"/>

<g filter="url(#shadow)">
  <circle cx="350" cy="105" r="42" fill="#f4b58b" stroke="#14263b" stroke-width="8"/>
  <path d="M320 83 Q350 47 384 83 Q372 65 338 67Z" fill="#14263b"/>
  <path d="M310 154 Q350 132 392 154 L410 282 Q350 315 292 282 Z" fill="url(#shirt)" stroke="#14263b" stroke-width="8"/>
  
      <path d="M315 174 L245 235" stroke="#14263b" stroke-width="24" stroke-linecap="round"/>
      <path d="M388 176 L455 226" stroke="#14263b" stroke-width="24" stroke-linecap="round"/>
      <path d="M325 286 L270 415" stroke="#14263b" stroke-width="30" stroke-linecap="round"/>
      <path d="M378 287 L435 354 L488 302" stroke="#14263b" stroke-width="30" stroke-linecap="round" stroke-linejoin="round"/>
      <path d="M257 420 L220 448" stroke="#14263b" stroke-width="24" stroke-linecap="round"/>
      <path d="M490 302 L525 278" stroke="#14263b" stroke-width="24" stroke-linecap="round"/>
    
  <path d="M486 346 Q540 312 554 252" fill="none" stroke="#ff8c5a" stroke-width="12" stroke-linecap="round"/><path d="M540 265 L556 248 L561 274" fill="none" stroke="#ff8c5a" stroke-width="10" stroke-linecap="round"/>
</g>
</svg>