<svg xmlns="http://www.w3.org/2000/svg" viewBox="0 0 900 560" role="img" aria-labelledby="t d">
<title id="t">Plank</title><desc id="d">Professional GregFit exercise illustration.</desc>
<defs>
  <linearGradient id="bg" x1="0" y1="0" x2="1" y2="1">
    <stop offset="0" stop-color="#0b2a31"/><stop offset="1" stop-color="#071820"/>
  </linearGradient>
  <linearGradient id="shirt" x1="0" y1="0" x2="1" y2="1">
    <stop offset="0" stop-color="#24c98a"/><stop offset="1" stop-color="#11765d"/>
  </linearGradient>
  <linearGradient id="skin" x1="0" y1="0" x2="1" y2="1">
    <stop offset="0" stop-color="#f2b386"/><stop offset="1" stop-color="#c97b55"/>
  </linearGradient>
  <linearGradient id="bell" x1="0" y1="0" x2="1" y2="1">
    <stop offset="0" stop-color="#3d4d57"/><stop offset="1" stop-color="#141d24"/>
  </linearGradient>
  <filter id="shadow"><feDropShadow dx="0" dy="10" stdDeviation="10" flood-color="#000" flood-opacity=".35"/></filter>
</defs>
<rect width="900" height="560" rx="32" fill="url(#bg)"/>
<ellipse cx="450" cy="505" rx="250" ry="22" fill="#000" opacity=".25"/>

<g filter="url(#shadow)">

<g transform="translate(255 225) scale(0.9)">
  <ellipse cx="0" cy="0" rx="31" ry="38" fill="url(#skin)" stroke="#08151d" stroke-width="5"/>
  <path d="M-28 -18 Q0 -50 30 -18 Q18 -38 -10 -41 Q-26 -34 -28 -18Z" fill="#111b22"/>
  <path d="M18 6 q10 2 12 10" stroke="#7e4b35" stroke-width="3" fill="none"/>
</g>
<path d="M300 245 L625 350" stroke="url(#shirt)" stroke-width="95" stroke-linecap="round"/>
<path d="M345 260 L275 375" stroke="url(#skin)" stroke-width="29" stroke-linecap="round"/>
<path d="M275 375 L205 375" stroke="url(#skin)" stroke-width="25" stroke-linecap="round"/>
<path d="M615 350 L735 405" stroke="#17242e" stroke-width="36" stroke-linecap="round"/>
<g transform="translate(760 415) rotate(8)"><path d="M-34 -8 Q8 -12 38 4 L28 18 H-34 Q-47 11 -34 -8Z" fill="#0b1015" stroke="#2d3c46" stroke-width="4"/></g>
</g>
<path d="M245 180 L740 350" stroke="#ff8a58" stroke-width="10" stroke-linecap="round"/>
<text x="475" y="135" text-anchor="middle" font-family="Arial" font-size="30" font-weight="700" fill="#ff9b6b">Keep one straight line</text>

</svg>