<svg xmlns="http://www.w3.org/2000/svg" viewBox="0 0 720 520" role="img" aria-labelledby="title desc">
<title id="title">Single arm overhead press</title>
<desc id="desc">Stylized GregFit exercise illustration.</desc>
<defs>
  <linearGradient id="bg" x1="0" y1="0" x2="1" y2="1">
    <stop offset="0%" stop-color="#eef8f5"/>
    <stop offset="100%" stop-color="#dfeeea"/>
  </linearGradient>
  <linearGradient id="shirt" x1="0" y1="0" x2="1" y2="1">
    <stop offset="0%" stop-color="#177f73"/>
    <stop offset="100%" stop-color="#0e5c55"/>
  </linearGradient>
  <filter id="shadow" x="-20%" y="-20%" width="140%" height="140%">
    <feDropShadow dx="0" dy="10" stdDeviation="12" flood-opacity=".14"/>
  </filter>
</defs>
<rect width="720" height="520" rx="36" fill="url(#bg)"/>
<ellipse cx="360" cy="466" rx="175" ry="22" fill="#17324d" opacity=".10"/>

<g filter="url(#shadow)">
  <circle cx="340" cy="120" r="42" fill="#f4b58b" stroke="#14263b" stroke-width="8"/>
  <path d="M310 98 Q340 62 374 98 Q362 80 328 82Z" fill="#14263b"/>
  <path d="M296 168 Q340 146 384 168 L404 304 Q340 334 278 304 Z" fill="url(#shirt)" stroke="#14263b" stroke-width="8"/>
  
      <path d="M300 188 L246 270" stroke="#14263b" stroke-width="24" stroke-linecap="round"/>
      <path d="M377 188 L414 118 L420 44" stroke="#14263b" stroke-width="24" stroke-linecap="round"/>
      <path d="M310 308 L270 430" stroke="#14263b" stroke-width="30" stroke-linecap="round"/>
      <path d="M373 307 L418 430" stroke="#14263b" stroke-width="30" stroke-linecap="round"/>
      <path d="M258 433 L220 451" stroke="#14263b" stroke-width="24" stroke-linecap="round"/>
      <path d="M410 433 L453 452" stroke="#14263b" stroke-width="24" stroke-linecap="round"/>
    
  
<g transform="translate(423 34) scale(0.75)" filter="url(#shadow)">
  <path d="M-28 -10 C-20 -42,20 -42,28 -10" fill="none" stroke="#14263b" stroke-width="14" stroke-linecap="round"/>
  <path d="M-44 -2 Q0 -24 44 -2 L55 56 Q0 88 -55 56 Z" fill="#ffb547" stroke="#14263b" stroke-width="8"/>
</g><path d="M492 195 L492 72" stroke="#ff8c5a" stroke-width="12" stroke-linecap="round"/><path d="M478 88 L492 70 L507 88" fill="none" stroke="#ff8c5a" stroke-width="10"/>
</g>
</svg>