<svg xmlns="http://www.w3.org/2000/svg" viewBox="0 0 720 520" role="img" aria-labelledby="title desc">
<title id="title">Romanian deadlift</title>
<desc id="desc">Stylized GregFit exercise illustration.</desc>
<defs>
  <linearGradient id="bg" x1="0" y1="0" x2="1" y2="1">
    <stop offset="0%" stop-color="#eef8f5"/>
    <stop offset="100%" stop-color="#dfeeea"/>
  </linearGradient>
  <linearGradient id="shirt" x1="0" y1="0" x2="1" y2="1">
    <stop offset="0%" stop-color="#177f73"/>
    <stop offset="100%" stop-color="#0e5c55"/>
  </linearGradient>
  <filter id="shadow" x="-20%" y="-20%" width="140%" height="140%">
    <feDropShadow dx="0" dy="10" stdDeviation="12" flood-opacity=".14"/>
  </filter>
</defs>
<rect width="720" height="520" rx="36" fill="url(#bg)"/>
<ellipse cx="360" cy="466" rx="175" ry="22" fill="#17324d" opacity=".10"/>

<g filter="url(#shadow)">
  <circle cx="300" cy="120" r="42" fill="#f4b58b" stroke="#14263b" stroke-width="8"/>
  <path d="M270 98 Q300 62 334 98 Q322 80 288 82Z" fill="#14263b"/>
  <path d="M330 152 Q386 166 438 218 L388 320 Q336 280 276 235 Z" fill="url(#shirt)" stroke="#14263b" stroke-width="8"/>
  
      <path d="M344 186 L388 280 L392 362" stroke="#14263b" stroke-width="24" stroke-linecap="round"/>
      <path d="M405 215 L424 286 L402 362" stroke="#14263b" stroke-width="24" stroke-linecap="round"/>
      <path d="M315 280 L265 424" stroke="#14263b" stroke-width="30" stroke-linecap="round"/>
      <path d="M383 317 L430 424" stroke="#14263b" stroke-width="30" stroke-linecap="round"/>
      <path d="M254 428 L215 448" stroke="#14263b" stroke-width="24" stroke-linecap="round"/>
      <path d="M420 428 L464 448" stroke="#14263b" stroke-width="24" stroke-linecap="round"/>
    
  
<g transform="translate(397 382) scale(0.72)" filter="url(#shadow)">
  <path d="M-28 -10 C-20 -42,20 -42,28 -10" fill="none" stroke="#14263b" stroke-width="14" stroke-linecap="round"/>
  <path d="M-44 -2 Q0 -24 44 -2 L55 56 Q0 88 -55 56 Z" fill="#ffb547" stroke="#14263b" stroke-width="8"/>
</g><path d="M520 166 Q465 214 446 304" fill="none" stroke="#ff8c5a" stroke-width="12"/><path d="M435 288 L446 308 L456 285" fill="none" stroke="#ff8c5a" stroke-width="10"/>
</g>
</svg>