<svg xmlns="http://www.w3.org/2000/svg" viewBox="0 0 900 560" role="img" aria-labelledby="t d">
<title id="t">Bent Over Row</title><desc id="d">Professional GregFit exercise illustration.</desc>
<defs>
  <linearGradient id="bg" x1="0" y1="0" x2="1" y2="1">
    <stop offset="0" stop-color="#0b2a31"/><stop offset="1" stop-color="#071820"/>
  </linearGradient>
  <linearGradient id="shirt" x1="0" y1="0" x2="1" y2="1">
    <stop offset="0" stop-color="#24c98a"/><stop offset="1" stop-color="#11765d"/>
  </linearGradient>
  <linearGradient id="skin" x1="0" y1="0" x2="1" y2="1">
    <stop offset="0" stop-color="#f2b386"/><stop offset="1" stop-color="#c97b55"/>
  </linearGradient>
  <linearGradient id="bell" x1="0" y1="0" x2="1" y2="1">
    <stop offset="0" stop-color="#3d4d57"/><stop offset="1" stop-color="#141d24"/>
  </linearGradient>
  <filter id="shadow"><feDropShadow dx="0" dy="10" stdDeviation="10" flood-color="#000" flood-opacity=".35"/></filter>
</defs>
<rect width="900" height="560" rx="32" fill="url(#bg)"/>
<ellipse cx="450" cy="505" rx="250" ry="22" fill="#000" opacity=".25"/>

<g filter="url(#shadow)">

<g transform="translate(310 145) scale(0.95)">
  <ellipse cx="0" cy="0" rx="31" ry="38" fill="url(#skin)" stroke="#08151d" stroke-width="5"/>
  <path d="M-28 -18 Q0 -50 30 -18 Q18 -38 -10 -41 Q-26 -34 -28 -18Z" fill="#111b22"/>
  <path d="M18 6 q10 2 12 10" stroke="#7e4b35" stroke-width="3" fill="none"/>
</g>

<g transform="translate(390 245) rotate(24) scale(0.95)">
  <path d="M-58 -70 Q0 -98 58 -70 L72 62 Q0 100 -72 62 Z" fill="url(#shirt)" stroke="#08151d" stroke-width="7"/>
  <path d="M-34 -67 Q0 -42 34 -67" fill="none" stroke="#d7f6ec" stroke-width="5" opacity=".8"/>
  <circle cx="0" cy="-14" r="18" fill="#0f5c49" opacity=".55"/>
  <text x="0" y="-5" text-anchor="middle" font-family="Arial" font-size="22" font-weight="900" fill="#d9fff3">G</text>
</g>
<path d="M350 205 L300 335" stroke="url(#skin)" stroke-width="27" stroke-linecap="round"/>
<path d="M455 230 L510 285" stroke="url(#skin)" stroke-width="27" stroke-linecap="round"/>
<path d="M510 285 L495 380" stroke="url(#skin)" stroke-width="25" stroke-linecap="round"/>
<path d="M365 320 L305 448" stroke="#17242e" stroke-width="34" stroke-linecap="round"/>
<path d="M450 338 L505 448" stroke="#17242e" stroke-width="34" stroke-linecap="round"/>
<g transform="translate(292 462) rotate(-4)"><path d="M-34 -8 Q8 -12 38 4 L28 18 H-34 Q-47 11 -34 -8Z" fill="#0b1015" stroke="#2d3c46" stroke-width="4"/></g><g transform="translate(520 462) rotate(4)"><path d="M-34 -8 Q8 -12 38 4 L28 18 H-34 Q-47 11 -34 -8Z" fill="#0b1015" stroke="#2d3c46" stroke-width="4"/></g>
<g transform="translate(495 405) scale(0.68)" filter="url(#shadow)">
<path d="M-28 -18 Q0 -48 28 -18" fill="none" stroke="#26343d" stroke-width="13" stroke-linecap="round"/>
<path d="M-42 -7 Q0 -25 42 -7 L50 45 Q0 78 -50 45Z" fill="url(#bell)" stroke="#08151d" stroke-width="6"/>
</g>
</g>
<path d="M610 395 L610 265" stroke="#ff8a58" stroke-width="12" stroke-linecap="round"/>
<path d="M595 282 L610 260 L625 282" fill="none" stroke="#ff8a58" stroke-width="10"/>

</svg>