<svg xmlns="http://www.w3.org/2000/svg" viewBox="0 0 720 520" role="img" aria-labelledby="title desc">
<title id="title">Bent over row</title>
<desc id="desc">Stylized GregFit exercise illustration.</desc>
<defs>
  <linearGradient id="bg" x1="0" y1="0" x2="1" y2="1">
    <stop offset="0%" stop-color="#eef8f5"/>
    <stop offset="100%" stop-color="#dfeeea"/>
  </linearGradient>
  <linearGradient id="shirt" x1="0" y1="0" x2="1" y2="1">
    <stop offset="0%" stop-color="#177f73"/>
    <stop offset="100%" stop-color="#0e5c55"/>
  </linearGradient>
  <filter id="shadow" x="-20%" y="-20%" width="140%" height="140%">
    <feDropShadow dx="0" dy="10" stdDeviation="12" flood-opacity=".14"/>
  </filter>
</defs>
<rect width="720" height="520" rx="36" fill="url(#bg)"/>
<ellipse cx="360" cy="466" rx="175" ry="22" fill="#17324d" opacity=".10"/>

<g filter="url(#shadow)">
  <circle cx="262" cy="140" r="42" fill="#f4b58b" stroke="#14263b" stroke-width="8"/>
  <path d="M232 118 Q262 82 296 118 Q284 100 250 102Z" fill="#14263b"/>
  <path d="M294 160 Q360 174 424 220 L384 326 Q318 286 250 250 Z" fill="url(#shirt)" stroke="#14263b" stroke-width="8"/>
  
      <path d="M300 185 L216 286" stroke="#14263b" stroke-width="24" stroke-linecap="round"/>
      <path d="M398 220 L470 274 L455 348" stroke="#14263b" stroke-width="24" stroke-linecap="round" stroke-linejoin="round"/>
      <path d="M300 294 L225 420" stroke="#14263b" stroke-width="30" stroke-linecap="round"/>
      <path d="M376 322 L430 420" stroke="#14263b" stroke-width="30" stroke-linecap="round"/>
      <path d="M215 423 L178 446" stroke="#14263b" stroke-width="24" stroke-linecap="round"/>
      <path d="M420 424 L464 447" stroke="#14263b" stroke-width="24" stroke-linecap="round"/>
    
  
<g transform="translate(458 370) scale(0.72)" filter="url(#shadow)">
  <path d="M-28 -10 C-20 -42,20 -42,28 -10" fill="none" stroke="#14263b" stroke-width="14" stroke-linecap="round"/>
  <path d="M-44 -2 Q0 -24 44 -2 L55 56 Q0 88 -55 56 Z" fill="#ffb547" stroke="#14263b" stroke-width="8"/>
</g><path d="M530 362 L530 255" stroke="#ff8c5a" stroke-width="12"/><path d="M516 271 L530 253 L544 271" fill="none" stroke="#ff8c5a" stroke-width="10"/>
</g>
</svg>