<svg xmlns="http://www.w3.org/2000/svg" viewBox="0 0 720 520" role="img" aria-labelledby="title desc">
<title id="title">Goblet squat</title>
<desc id="desc">Stylized GregFit exercise illustration.</desc>
<defs>
  <linearGradient id="bg" x1="0" y1="0" x2="1" y2="1">
    <stop offset="0%" stop-color="#eef8f5"/>
    <stop offset="100%" stop-color="#dfeeea"/>
  </linearGradient>
  <linearGradient id="shirt" x1="0" y1="0" x2="1" y2="1">
    <stop offset="0%" stop-color="#177f73"/>
    <stop offset="100%" stop-color="#0e5c55"/>
  </linearGradient>
  <filter id="shadow" x="-20%" y="-20%" width="140%" height="140%">
    <feDropShadow dx="0" dy="10" stdDeviation="12" flood-opacity=".14"/>
  </filter>
</defs>
<rect width="720" height="520" rx="36" fill="url(#bg)"/>
<ellipse cx="360" cy="466" rx="175" ry="22" fill="#17324d" opacity=".10"/>

<g filter="url(#shadow)">
  <circle cx="360" cy="104" r="42" fill="#f4b58b" stroke="#14263b" stroke-width="8"/>
  <path d="M330 82 Q360 46 394 82 Q382 64 348 66Z" fill="#14263b"/>
  <path d="M316 150 Q360 130 404 151 L418 282 Q360 312 302 282 Z" fill="url(#shirt)" stroke="#14263b" stroke-width="8"/>
  
      <path d="M322 176 L360 222" stroke="#14263b" stroke-width="24" stroke-linecap="round"/>
      <path d="M398 176 L360 222" stroke="#14263b" stroke-width="24" stroke-linecap="round"/>
      <path d="M322 283 L230 334 L207 430" stroke="#14263b" stroke-width="30" stroke-linecap="round" stroke-linejoin="round"/>
      <path d="M398 283 L490 334 L514 430" stroke="#14263b" stroke-width="30" stroke-linecap="round" stroke-linejoin="round"/>
      <path d="M197 432 L158 448" stroke="#14263b" stroke-width="24" stroke-linecap="round"/>
      <path d="M506 432 L550 448" stroke="#14263b" stroke-width="24" stroke-linecap="round"/>
    
  
<g transform="translate(360 232) scale(0.72)" filter="url(#shadow)">
  <path d="M-28 -10 C-20 -42,20 -42,28 -10" fill="none" stroke="#14263b" stroke-width="14" stroke-linecap="round"/>
  <path d="M-44 -2 Q0 -24 44 -2 L55 56 Q0 88 -55 56 Z" fill="#ffb547" stroke="#14263b" stroke-width="8"/>
</g><path d="M560 170 L560 320" stroke="#ff8c5a" stroke-width="12"/><path d="M546 306 L560 324 L574 306" fill="none" stroke="#ff8c5a" stroke-width="10"/>
</g>
</svg>