<svg xmlns="http://www.w3.org/2000/svg" viewBox="0 0 720 520" role="img" aria-labelledby="title desc">
<title id="title">Kettlebell swing</title>
<desc id="desc">Stylized GregFit exercise illustration.</desc>
<defs>
  <linearGradient id="bg" x1="0" y1="0" x2="1" y2="1">
    <stop offset="0%" stop-color="#eef8f5"/>
    <stop offset="100%" stop-color="#dfeeea"/>
  </linearGradient>
  <linearGradient id="shirt" x1="0" y1="0" x2="1" y2="1">
    <stop offset="0%" stop-color="#177f73"/>
    <stop offset="100%" stop-color="#0e5c55"/>
  </linearGradient>
  <filter id="shadow" x="-20%" y="-20%" width="140%" height="140%">
    <feDropShadow dx="0" dy="10" stdDeviation="12" flood-opacity=".14"/>
  </filter>
</defs>
<rect width="720" height="520" rx="36" fill="url(#bg)"/>
<ellipse cx="360" cy="466" rx="175" ry="22" fill="#17324d" opacity=".10"/>

<g filter="url(#shadow)">
  <circle cx="320" cy="102" r="42" fill="#f4b58b" stroke="#14263b" stroke-width="8"/>
  <path d="M290 80 Q320 44 354 80 Q342 62 308 64Z" fill="#14263b"/>
  <path d="M280 150 Q325 128 370 157 L405 276 Q345 312 286 278 Z" fill="url(#shirt)" stroke="#14263b" stroke-width="8"/>
  
      <path d="M298 179 L375 242 L455 258" stroke="#14263b" stroke-width="24" stroke-linecap="round" stroke-linejoin="round"/>
      <path d="M352 176 L400 224 L458 258" stroke="#14263b" stroke-width="24" stroke-linecap="round" stroke-linejoin="round"/>
      <path d="M310 284 L250 420" stroke="#14263b" stroke-width="30" stroke-linecap="round"/>
      <path d="M377 281 L430 416" stroke="#14263b" stroke-width="30" stroke-linecap="round"/>
      <path d="M237 424 L205 448" stroke="#14263b" stroke-width="24" stroke-linecap="round"/>
      <path d="M423 420 L466 444" stroke="#14263b" stroke-width="24" stroke-linecap="round"/>
    
  
<g transform="translate(485 264) scale(0.88)" filter="url(#shadow)">
  <path d="M-28 -10 C-20 -42,20 -42,28 -10" fill="none" stroke="#14263b" stroke-width="14" stroke-linecap="round"/>
  <path d="M-44 -2 Q0 -24 44 -2 L55 56 Q0 88 -55 56 Z" fill="#ffb547" stroke="#14263b" stroke-width="8"/>
</g><path d="M470 320 Q560 255 518 164" fill="none" stroke="#ff8c5a" stroke-width="12" stroke-linecap="round"/><path d="M504 178 L520 160 L526 186" fill="none" stroke="#ff8c5a" stroke-width="10"/>
</g>
</svg>