<svg xmlns="http://www.w3.org/2000/svg" viewBox="0 0 640 420"><rect width="640" height="420" rx="32" fill="#f8fafc"/><circle cx="320" cy="76" r="34" fill="#f1c7a5"/><path d="M320 110v137" stroke="#15324a" stroke-width="28" stroke-linecap="round"/><path d="M314 146l-72 111M326 146l72 111" stroke="#15324a" stroke-width="22" stroke-linecap="round"/><path d="M315 244l-76 112M323 244l82 112" stroke="#15324a" stroke-width="26" stroke-linecap="round"/><path d="M242 255q23 0 23 23v18q0 22-23 22h-32q-23 0-23-22v-18q0-23 23-23z" fill="#0f766e"/><path d="M210 257q16-27 32 0" fill="none" stroke="#0f766e" stroke-width="12"/><path d="M493 108v171" stroke="#0f766e" stroke-width="12" stroke-linecap="round"/><text x="458" y="90" font-family="Arial" font-size="23" fill="#0f766e">stay tall</text><ellipse cx="320" cy="377" rx="180" ry="18" fill="#dbeafe"/></svg>