<svg xmlns="http://www.w3.org/2000/svg" viewBox="0 0 640 420"><rect width="640" height="420" rx="32" fill="#f8fafc"/><circle cx="318" cy="88" r="34" fill="#f1c7a5"/><path d="M318 122v127" stroke="#15324a" stroke-width="28" stroke-linecap="round"/><path d="M312 154l-67 73M324 151l64-92" stroke="#15324a" stroke-width="22" stroke-linecap="round"/><path d="M316 246l-70 110M320 246l79 110" stroke="#15324a" stroke-width="26" stroke-linecap="round"/><path d="M391 51q24 0 24 24v18q0 22-24 22h-30q-24 0-24-22V75q0-24 24-24z" fill="#0f766e"/><path d="M361 52q15-26 30 0" fill="none" stroke="#0f766e" stroke-width="12"/><path d="M462 192V72" stroke="#0f766e" stroke-width="12" stroke-linecap="round"/><path d="M445 93l17-22 17 22" fill="none" stroke="#0f766e" stroke-width="10" stroke-linecap="round"/><ellipse cx="320" cy="377" rx="176" ry="18" fill="#dbeafe"/></svg>