<svg xmlns="http://www.w3.org/2000/svg" viewBox="0 0 640 420"><rect width="640" height="420" rx="32" fill="#f8fafc"/><circle cx="236" cy="88" r="34" fill="#f1c7a5"/><path d="M262 109l112 105" stroke="#15324a" stroke-width="28" stroke-linecap="round"/><path d="M300 145l26 126M326 169l16 103" stroke="#15324a" stroke-width="22" stroke-linecap="round"/><path d="M372 211l-65 140M374 211l80 137" stroke="#15324a" stroke-width="26" stroke-linecap="round"/><path d="M350 270q24 0 24 24v18q0 22-24 22h-34q-24 0-24-22v-18q0-24 24-24z" fill="#0f766e"/><path d="M316 272q17-27 34 0" fill="none" stroke="#0f766e" stroke-width="12"/><path d="M518 113q-74 40-112 113" fill="none" stroke="#0f766e" stroke-width="12" stroke-linecap="round"/><path d="M422 212l-19 16 26 3" fill="none" stroke="#0f766e" stroke-width="10" stroke-linecap="round"/><ellipse cx="338" cy="377" rx="190" ry="18" fill="#dbeafe"/></svg>