<svg xmlns="http://www.w3.org/2000/svg" viewBox="0 0 640 420"><rect width="640" height="420" rx="32" fill="#f8fafc"/><circle cx="217" cy="91" r="34" fill="#f1c7a5"/><path d="M245 111l151 83" stroke="#15324a" stroke-width="28" stroke-linecap="round"/><path d="M291 137l-70 113M339 163l34 89" stroke="#15324a" stroke-width="22" stroke-linecap="round"/><path d="M394 191l63 151M390 194l-25 154" stroke="#15324a" stroke-width="26" stroke-linecap="round"/><path d="M389 260q23 0 23 23v18q0 22-23 22h-32q-23 0-23-22v-18q0-23 23-23z" fill="#0f766e"/><path d="M357 261q16-27 32 0" fill="none" stroke="#0f766e" stroke-width="12"/><path d="M500 281v-99" stroke="#0f766e" stroke-width="12" stroke-linecap="round"/><path d="M483 203l17-22 17 22" fill="none" stroke="#0f766e" stroke-width="10" stroke-linecap="round"/><ellipse cx="332" cy="377" rx="210" ry="18" fill="#dbeafe"/></svg>