<svg xmlns="http://www.w3.org/2000/svg" viewBox="0 0 640 420"><rect width="640" height="420" rx="32" fill="#f8fafc"/><circle cx="320" cy="72" r="34" fill="#f1c7a5"/><path d="M320 106v119" stroke="#15324a" stroke-width="28" stroke-linecap="round"/><path d="M318 137l-55 62M322 137l55 62" stroke="#15324a" stroke-width="22" stroke-linecap="round"/><path d="M318 221l-95 55-27 82M322 221l95 55 27 82" stroke="#15324a" stroke-width="26" stroke-linecap="round"/><path d="M337 151q22 0 22 22v17q0 21-22 21h-34q-22 0-22-21v-17q0-22 22-22z" fill="#0f766e"/><path d="M303 153q17-27 34 0" fill="none" stroke="#0f766e" stroke-width="12"/><path d="M505 105v146" stroke="#0f766e" stroke-width="12" stroke-linecap="round"/><path d="M488 229l17 22 17-22" fill="none" stroke="#0f766e" stroke-width="10" stroke-linecap="round"/><ellipse cx="320" cy="377" rx="200" ry="18" fill="#dbeafe"/></svg>