<svg xmlns="http://www.w3.org/2000/svg" viewBox="0 0 640 420"><rect width="640" height="420" rx="32" fill="#f8fafc"/><circle cx="255" cy="82" r="34" fill="#f1c7a5"/><path d="M260 116l26 123" stroke="#15324a" stroke-width="28" stroke-linecap="round"/><path d="M277 150l64 77M274 151l56 87" stroke="#15324a" stroke-width="21" stroke-linecap="round"/><path d="M286 236l-76 112M290 236l103 104" stroke="#15324a" stroke-width="26" stroke-linecap="round"/><path d="M324 238q116-28 160-115" fill="none" stroke="#0f766e" stroke-width="12" stroke-linecap="round"/><path d="M466 131l23-15-4 26" fill="none" stroke="#0f766e" stroke-width="10" stroke-linecap="round"/><path d="M488 94q24 0 24 24v18q0 22-24 22h-30q-24 0-24-22v-18q0-24 24-24z" fill="#0f766e"/><path d="M458 95q15-26 30 0" fill="none" stroke="#0f766e" stroke-width="12"/><ellipse cx="310" cy="376" rx="190" ry="18" fill="#dbeafe"/></svg>